<?xml version="1.0" encoding="utf-8"?>
<!-- Generator: Adobe Illustrator 24.1.1, SVG Export Plug-In . SVG Version: 6.00 Build 0)  -->
<svg version="1.1" id="Layer_1" xmlns="http://www.w3.org/2000/svg" xmlns:xlink="http://www.w3.org/1999/xlink" x="0px" y="0px"
	 viewBox="0 0 512 512" style="enable-background:new 0 0 512 512;" xml:space="preserve">
<style type="text/css">
	.st0{fill:#539E43;}
	.st1{fill:#333333;}
	.st2{fill:url(#SVGID_1_);}
	.st3{clip-path:url(#SVGID_3_);fill:url(#SVGID_4_);}
	.st4{clip-path:url(#SVGID_3_);}
	.st5{clip-path:url(#SVGID_8_);fill:url(#SVGID_9_);}
	.st6{clip-path:url(#SVGID_8_);fill:url(#SVGID_10_);}
	.st7{clip-path:url(#SVGID_8_);}
	.st8{clip-path:url(#SVGID_8_);fill:url(#SVGID_13_);}
	.st9{clip-path:url(#SVGID_8_);fill:url(#SVGID_14_);}
</style>
<g>
	<path class="st0" d="M253.2,412.8c-1.7,0-3.4-0.5-4.9-1.3l-15.4-9.1c-2.3-1.3-1.2-1.7-0.5-2c3.1-1,3.7-1.3,6.9-3.1
		c0.3-0.2,0.8-0.1,1.2,0.1l11.8,7.1c0.5,0.2,1,0.2,1.4,0l46.2-26.7c0.5-0.2,0.7-0.7,0.7-1.3v-53.4c0-0.6-0.2-1-0.7-1.3l-46.2-26.6
		c-0.5-0.2-1-0.2-1.4,0l-46.2,26.6c-0.5,0.2-0.7,0.8-0.7,1.3v53.4c0,0.5,0.2,1,0.7,1.3l12.6,7.3c6.8,3.5,11.1-0.6,11.1-4.6v-52.7
		c0-0.7,0.6-1.4,1.4-1.4h5.9c0.7,0,1.4,0.6,1.4,1.4v52.7c0,9.1-5,14.5-13.7,14.5c-2.7,0-4.7,0-10.6-2.9l-12.2-6.9
		c-3-1.7-4.9-5-4.9-8.4v-53.4c0-3.5,1.9-6.7,4.9-8.4l46.2-26.7c2.9-1.6,6.8-1.6,9.7,0l46.2,26.7c3,1.7,4.9,5,4.9,8.4v53.4
		c0,3.5-1.9,6.7-4.9,8.4l-46.2,26.7C256.6,412.4,254.8,412.8,253.2,412.8z M267.5,376.1c-20.3,0-24.4-9.3-24.4-17.1
		c0-0.7,0.6-1.4,1.4-1.4h6c0.7,0,1.3,0.5,1.3,1.2c0.9,6.1,3.6,9.1,15.9,9.1c9.7,0,13.9-2.2,13.9-7.4c0-3-1.2-5.2-16.3-6.7
		c-12.6-1.3-20.5-4.1-20.5-14.1c0-9.4,7.9-14.9,21.1-14.9c14.8,0,22.1,5.1,23,16.2c0,0.3-0.1,0.7-0.3,1c-0.2,0.2-0.6,0.5-0.9,0.5h-6
		c-0.6,0-1.2-0.5-1.3-1c-1.4-6.4-5-8.4-14.5-8.4c-10.6,0-11.9,3.7-11.9,6.5c0,3.4,1.5,4.4,15.9,6.2c14.2,1.9,20.9,4.5,20.9,14.5
		C290.5,370.3,282.2,376.1,267.5,376.1z"/>
	<path class="st1" d="M109.9,204.1c0-2.1-1.2-4.1-3-5.1l-49.1-28.2c-0.8-0.5-1.7-0.7-2.7-0.8h-0.5c-0.9,0-1.9,0.3-2.7,0.8L3,199
		c-1.9,1-3,3-3,5.1L0.1,280c0,1,0.6,2.1,1.5,2.5c0.9,0.6,2.1,0.6,2.9,0l29.2-16.7c1.9-1,3-3,3-5.1v-35.5c0-2.1,1.2-4.1,3-5.1
		l12.4-7.2c0.9-0.6,2-0.8,3-0.8c1,0,2.1,0.2,2.9,0.8l12.4,7.2c1.9,1,3,3,3,5.1v35.5c0,2.1,1.2,4.1,3,5.1l29.2,16.7
		c0.9,0.6,2.1,0.6,3,0c0.9-0.5,1.5-1.5,1.5-2.5L109.9,204.1z"/>
	<path class="st1" d="M345.8,99.6c-0.9-0.5-2.1-0.5-2.9,0c-0.9,0.6-1.5,1.5-1.5,2.5v75.2c0,0.7-0.3,1.4-1,1.9
		c-0.7,0.3-1.4,0.3-2.1,0l-12.3-7.1c-1.9-1-4.1-1-5.9,0L271,200.5c-1.9,1-3,3-3,5.1v56.6c0,2.1,1.2,4.1,3,5.1l49.1,28.4
		c1.9,1,4.1,1,5.9,0l49.1-28.4c1.9-1,3-3,3-5.1V121.1c0-2.2-1.2-4.2-3-5.2L345.8,99.6z M341.3,243.6c0,0.6-0.2,1-0.7,1.3l-16.8,9.7
		c-0.5,0.2-1,0.2-1.5,0l-16.8-9.7c-0.5-0.2-0.7-0.8-0.7-1.3v-19.4c0-0.6,0.2-1,0.7-1.3l16.8-9.7c0.5-0.2,1-0.2,1.5,0l16.8,9.7
		c0.5,0.2,0.7,0.8,0.7,1.3V243.6z"/>
	<path class="st1" d="M509.1,223.7c1.9-1,2.9-3,2.9-5.1v-13.8c0-2.1-1.2-4.1-2.9-5.1l-48.7-28.2c-1.9-1-4.1-1-5.9,0l-49.1,28.4
		c-1.9,1-3,3-3,5.1v56.6c0,2.1,1.2,4.1,3,5.1l48.7,27.8c1.9,1,4.1,1,5.8,0l29.5-16.4c0.9-0.5,1.5-1.5,1.5-2.5c0-1-0.6-2.1-1.5-2.5
		l-49.3-28.4c-0.9-0.6-1.5-1.5-1.5-2.5v-17.7c0-1,0.6-2.1,1.5-2.5l15.4-8.8c0.9-0.6,2.1-0.6,3,0l15.4,8.8c0.9,0.6,1.5,1.5,1.5,2.5
		v13.9c0,1,0.6,2.1,1.5,2.5c0.9,0.6,2.1,0.6,3,0L509.1,223.7z"/>
	<path class="st0" d="M456.7,221c0.3-0.2,0.8-0.2,1.2,0l9.4,5.4c0.3,0.2,0.6,0.6,0.6,1v10.9c0,0.5-0.2,0.8-0.6,1l-9.4,5.4
		c-0.3,0.2-0.8,0.2-1.2,0l-9.4-5.4c-0.3-0.2-0.6-0.6-0.6-1v-10.9c0-0.5,0.2-0.8,0.6-1L456.7,221z"/>
	
		<linearGradient id="SVGID_1_" gradientUnits="userSpaceOnUse" x1="-1.1823" y1="509.4189" x2="-0.181" y2="509.4189" gradientTransform="matrix(-43.9937 89.7471 -78.7636 -50.1286 40280.418 25835.125)">
		<stop  offset="0" style="stop-color:#41873F"/>
		<stop  offset="0.3288" style="stop-color:#418B3D"/>
		<stop  offset="0.6352" style="stop-color:#419637"/>
		<stop  offset="0.9319" style="stop-color:#3FA92D"/>
		<stop  offset="1" style="stop-color:#3FAE2A"/>
	</linearGradient>
	<path class="st2" d="M242.1,201l-16.6,30.4l18,30.8c0-0.3,0.1-0.6,0.1-0.9v-56.4C243.6,203.4,243,202,242.1,201 M137.4,199.8
		L137.4,199.8c-1.9,1.1-2.9,3-2.9,5.1v56.4c0,1.3,0.4,2.5,1.2,3.6l0,0l19.3-33L137.4,199.8 M190.2,171l0.1,0.2l0.1-0.1
		c0.5,0.1,1,0.3,1.5,0.6l24.5,14.1L192,171.7C191.4,171.4,190.8,171.1,190.2,171"/>
	<g>
		<defs>
			<polyline id="SVGID_2_" points="134,170.9 244,170.9 244,295.4 134,295.4 134,170.9 			"/>
		</defs>
		<clipPath id="SVGID_3_">
			<use xlink:href="#SVGID_2_"  style="overflow:visible;"/>
		</clipPath>
		
			<linearGradient id="SVGID_4_" gradientUnits="userSpaceOnUse" x1="1.4028" y1="513.1347" x2="2.4041" y2="513.1347" gradientTransform="matrix(123.4431 -91.2064 78.2105 143.9551 -40117.5195 -73488.7422)">
			<stop  offset="0" style="stop-color:#FFFFFF"/>
			<stop  offset="0.1376" style="stop-color:#FFFFFF"/>
			<stop  offset="0.4032" style="stop-color:#FFFFFF"/>
			<stop  offset="0.7136" style="stop-color:#FFFFFF"/>
			<stop  offset="0.9081" style="stop-color:#FFFFFF"/>
			<stop  offset="1" style="stop-color:#FFFFFF"/>
		</linearGradient>
		<path class="st3" d="M135.7,264.8l-0.2,0.3c0.5,0.6,1,1,1.6,1.4l49,28.1c0.9,0.5,1.9,0.8,2.9,0.8c0.3,0,0.6,0,1-0.1l0-0.1
			c-0.1,0-0.1,0-0.2,0l0-0.1c-0.2,0-0.5,0-0.7,0c-1,0-2-0.3-3-0.8l-48.7-28.1C136.7,266,136.1,265.4,135.7,264.8 M216.4,185.8
			l24.3,14c0.5,0.3,1,0.7,1.4,1.2l0,0c-0.3-0.5-0.8-0.8-1.3-1.2L216.4,185.8"/>
		<g class="st4">
			<defs>
				<path id="SVGID_5_" d="M155,231.8l-19.3,33c0.5,0.6,1,1.1,1.7,1.5l48.7,28.1c0.9,0.5,1.9,0.8,3,0.8c0.2,0,0.5,0,0.7,0l0,0
					L155,231.8 M190.4,171.1l-0.1,0.1l35.2,60.1l16.6-30.4c-0.4-0.5-0.9-0.8-1.4-1.2l-24.3-14l-24.5-14.1
					C191.4,171.5,190.8,171.2,190.4,171.1"/>
			</defs>
			<clipPath id="SVGID_6_">
				<use xlink:href="#SVGID_5_"  style="overflow:visible;"/>
			</clipPath>
			<g style="clip-path:url(#SVGID_6_);">
				
					<image style="overflow:visible;" width="225" height="261" xlink:href="405364D5.jpg"  transform="matrix(0.4807 0 0 -0.4807 134.8559 295.9766)">
				</image>
			</g>
		</g>
	</g>
	<g>
		<defs>
			<polyline id="SVGID_7_" points="134,161.4 245.5,161.4 245.5,296.9 134,296.9 134,161.4 			"/>
		</defs>
		<clipPath id="SVGID_8_">
			<use xlink:href="#SVGID_7_"  style="overflow:visible;"/>
		</clipPath>
		
			<linearGradient id="SVGID_9_" gradientUnits="userSpaceOnUse" x1="2.8349" y1="512.6902" x2="3.8363" y2="512.6902" gradientTransform="matrix(90.0724 0 0 33.7771 -112.4292 -17155.623)">
			<stop  offset="0" style="stop-color:#FFFFFF"/>
			<stop  offset="9.191646e-02" style="stop-color:#FFFFFF"/>
			<stop  offset="0.2864" style="stop-color:#FFFFFF"/>
			<stop  offset="0.5968" style="stop-color:#FFFFFF"/>
			<stop  offset="0.8624" style="stop-color:#FFFFFF"/>
			<stop  offset="1" style="stop-color:#FFFFFF"/>
		</linearGradient>
		<polyline class="st5" points="184.5,161.4 184.5,161.4 183.8,161.7 184.7,161.7 184.5,161.4 		"/>
		
			<linearGradient id="SVGID_10_" gradientUnits="userSpaceOnUse" x1="2.2678" y1="512.1766" x2="3.2692" y2="512.1766" gradientTransform="matrix(112.5903 0 0 131.5483 -122.6316 -67143.0547)">
			<stop  offset="0" style="stop-color:#FFFFFF"/>
			<stop  offset="9.191646e-02" style="stop-color:#FFFFFF"/>
			<stop  offset="0.2864" style="stop-color:#FFFFFF"/>
			<stop  offset="0.5968" style="stop-color:#FFFFFF"/>
			<stop  offset="0.8624" style="stop-color:#FFFFFF"/>
			<stop  offset="1" style="stop-color:#FFFFFF"/>
		</linearGradient>
		<path class="st6" d="M243.6,262.2c-0.3,1.7-1.2,3.3-2.8,4.2L192,294.5c-0.3,0.2-0.7,0.3-1,0.5c0.4-0.1,0.8-0.3,1.2-0.5l48.8-28.1
			c1.4-0.8,2.4-2.2,2.7-3.8l0.2,0.3c0-0.1,0-0.1,0.1-0.2L243.6,262.2 M188.9,170.9c-1,0-2,0.2-2.9,0.8l-48.6,28l0,0.1l48.7-28.1
			c0.9-0.5,1.9-0.8,3-0.8c0.4,0,0.7,0,1.1,0.1l0,0C189.7,170.9,189.3,170.9,188.9,170.9"/>
		<g class="st7">
			<defs>
				<path id="SVGID_11_" d="M189.9,295.2c-0.1,0-0.1,0-0.2,0l0,0.1C189.9,295.3,189.9,295.3,189.9,295.2L189.9,295.2"/>
			</defs>
			<clipPath id="SVGID_12_">
				<use xlink:href="#SVGID_11_"  style="overflow:visible;"/>
			</clipPath>
			<g style="clip-path:url(#SVGID_12_);">
				
					<image style="overflow:visible;" width="3" height="3" xlink:href="405364D7.jpg"  transform="matrix(0.4807 0 0 -0.4807 189.1695 295.9766)">
				</image>
			</g>
		</g>
		
			<linearGradient id="SVGID_13_" gradientUnits="userSpaceOnUse" x1="7.5625" y1="512.2976" x2="8.5639" y2="512.2976" gradientTransform="matrix(33.777 0 0 78.8131 -44.0442 -40110.5195)">
			<stop  offset="0" style="stop-color:#FFFFFF"/>
			<stop  offset="9.191646e-02" style="stop-color:#FFFFFF"/>
			<stop  offset="0.2864" style="stop-color:#FFFFFF"/>
			<stop  offset="0.5968" style="stop-color:#FFFFFF"/>
			<stop  offset="0.8624" style="stop-color:#FFFFFF"/>
			<stop  offset="1" style="stop-color:#FFFFFF"/>
		</linearGradient>
		<polyline class="st8" points="245.1,264.9 245.1,265.7 245.5,265.4 245.1,264.9 		"/>
		
			<linearGradient id="SVGID_14_" gradientUnits="userSpaceOnUse" x1="-0.164" y1="510.9244" x2="0.8373" y2="510.9244" gradientTransform="matrix(-69.4385 141.6546 -227.0289 -43.3261 116245.0469 22349.6035)">
			<stop  offset="0" style="stop-color:#FFFFFF"/>
			<stop  offset="0.3288" style="stop-color:#FFFFFF"/>
			<stop  offset="0.6352" style="stop-color:#FFFFFF"/>
			<stop  offset="0.9319" style="stop-color:#FFFFFF"/>
			<stop  offset="1" style="stop-color:#FFFFFF"/>
		</linearGradient>
		<path class="st9" d="M243.6,262.5c-0.2,1.6-1.3,3-2.7,3.8l-48.8,28.1c-0.4,0.2-0.8,0.3-1.2,0.5c-0.1,0-0.2,0.1-0.3,0.1l-0.1,0.1
			c-0.2,0.1-0.4,0.1-0.6,0.1l0.8,1.6h0l54.2-31.4v-0.7l-1.2-2L243.6,262.5"/>
		<g class="st7">
			<defs>
				<path id="SVGID_15_" d="M190.7,295c-0.3,0.1-0.5,0.1-0.8,0.2l0.1,0.1c0.2,0,0.4-0.1,0.6-0.1L190.7,295"/>
			</defs>
			<clipPath id="SVGID_16_">
				<use xlink:href="#SVGID_15_"  style="overflow:visible;"/>
			</clipPath>
			<g style="clip-path:url(#SVGID_16_);">
				
					<image style="overflow:visible;" width="5" height="3" xlink:href="405364D2.jpg"  transform="matrix(0.4807 0 0 -0.4807 189.1695 295.9766)">
				</image>
			</g>
		</g>
		<g class="st7">
			<defs>
				<path id="SVGID_17_" d="M225.5,231.3L190.7,295c0.1,0,0.2,0,0.3-0.1c0.4-0.1,0.7-0.3,1-0.5l48.7-28.1c1.6-0.9,2.6-2.5,2.8-4.2
					L225.5,231.3 M189,170.9c-1,0-2,0.3-3,0.8l-48.7,28.1l17.5,32l35.3-60.5l-0.1-0.2C189.8,170.9,189.4,170.9,189,170.9"/>
			</defs>
			<clipPath id="SVGID_18_">
				<use xlink:href="#SVGID_17_"  style="overflow:visible;"/>
			</clipPath>
			<g style="clip-path:url(#SVGID_18_);">
				
					<image style="overflow:visible;" width="224" height="262" xlink:href="405364D3.jpg"  transform="matrix(0.4807 0 0 -0.4807 136.7785 295.9766)">
				</image>
			</g>
		</g>
		<g class="st7">
			<defs>
				<path id="SVGID_19_" d="M190.3,171.3L155,231.8l34.8,63.4c0.1,0,0.1,0,0.2,0l0,0l0,0c0.3,0,0.5-0.1,0.8-0.2l34.8-63.7
					L190.3,171.3"/>
			</defs>
			<clipPath id="SVGID_20_">
				<use xlink:href="#SVGID_19_"  style="overflow:visible;"/>
			</clipPath>
			<g style="clip-path:url(#SVGID_20_);">
				
					<image style="overflow:visible;" width="150" height="261" xlink:href="405364DD.jpg"  transform="matrix(0.4807 0 0 -0.4807 154.082 295.9766)">
				</image>
			</g>
		</g>
		<g class="st7">
			<defs>
				<path id="SVGID_21_" d="M191,294.9c-0.1,0-0.2,0.1-0.3,0.1l0,0C190.8,295,190.9,295,191,294.9"/>
			</defs>
			<clipPath id="SVGID_22_">
				<use xlink:href="#SVGID_21_"  style="overflow:visible;"/>
			</clipPath>
			<g style="clip-path:url(#SVGID_22_);">
				
					<image style="overflow:visible;" width="3" height="4" xlink:href="405364DF.jpg"  transform="matrix(0.4807 0 0 -0.4807 190.1308 295.9766)">
				</image>
			</g>
		</g>
		<g class="st7">
			<defs>
				<path id="SVGID_23_" d="M190.7,295c-0.2,0.1-0.5,0.1-0.8,0.2l0,0l0,0C190.2,295.2,190.4,295.1,190.7,295L190.7,295"/>
			</defs>
			<clipPath id="SVGID_24_">
				<use xlink:href="#SVGID_23_"  style="overflow:visible;"/>
			</clipPath>
			<g style="clip-path:url(#SVGID_24_);">
				
					<image style="overflow:visible;" width="5" height="3" xlink:href="405364D0.jpg"  transform="matrix(0.4807 0 0 -0.4807 189.1695 295.9766)">
				</image>
			</g>
		</g>
	</g>
</g>
</svg>
