<svg width="22" height="18" viewBox="0 0 22 18" fill="none" xmlns="http://www.w3.org/2000/svg">
<path fill-rule="evenodd" clip-rule="evenodd" d="M16.2 0H5.4C2.43027 0 0 2.02432 0 4.5V13.5C0 15.9748 2.43027 18 5.4 18H16.2C19.1697 18 21.6 15.9748 21.6 13.5V4.5C21.6 2.02432 19.1697 0 16.2 0ZM10.8 12.7499C8.31438 12.7499 6.29991 11.0704 6.29991 9C6.29991 6.92865 8.31438 5.24993 10.8 5.24993C13.2845 5.24993 15.3001 6.92865 15.3001 9C15.3001 11.0704 13.2845 12.7499 10.8 12.7499ZM15.3001 4.12492C15.3001 4.74615 15.9038 5.24992 16.6501 5.24992C17.3964 5.24992 18.0001 4.74615 18.0001 4.12492C18.0001 3.5037 17.3964 2.99992 16.6501 2.99992C15.9038 2.99992 15.3001 3.5037 15.3001 4.12492Z" fill="#333333"/>
</svg>
