<svg width="25" height="16" viewBox="0 0 25 16" fill="none" xmlns="http://www.w3.org/2000/svg">
<path d="M21.9596 3.99704C21.9752 4.17204 21.9753 4.34604 21.9753 4.52004C21.9753 9.84504 17.1116 15.981 8.22325 15.981C5.48485 15.981 2.94085 15.32 0.800049 14.172C1.18885 14.209 1.56325 14.222 1.96765 14.222C4.22725 14.222 6.30685 13.586 7.96885 12.501C5.84365 12.464 4.06285 11.304 3.44845 9.70804C3.74725 9.74504 4.04725 9.77004 4.36165 9.77004C4.79485 9.77004 5.23045 9.72004 5.63485 9.63304C3.41845 9.25904 1.75885 7.63804 1.75885 5.68004V5.63004C2.40325 5.92904 3.15085 6.11604 3.94285 6.14104C2.64085 5.41904 1.78765 4.18404 1.78765 2.78704C1.78765 2.03904 2.02645 1.35304 2.44525 0.755043C4.82485 3.19804 8.40205 4.79504 12.4124 4.97004C12.338 4.67004 12.2924 4.35904 12.2924 4.04704C12.2924 1.82704 14.4476 0.019043 17.126 0.019043C18.518 0.019043 19.7745 0.505043 20.6576 1.29104C21.7497 1.11604 22.796 0.779043 23.7248 0.318043C23.3661 1.25304 22.6017 2.03904 21.5996 2.53804C22.5728 2.45004 23.5161 2.22604 24.3825 1.91404C23.7248 2.71204 22.9028 3.42304 21.9596 3.99704Z" fill="#333333"/>
</svg>
